<svg width="20" height="19" viewBox="0 0 20 19" fill="none" xmlns="http://www.w3.org/2000/svg">
<path d="M11.1794 11.1794C11.6248 10.734 11.875 10.1299 11.875 9.5C11.875 8.87011 11.6248 8.26602 11.1794 7.82062C10.734 7.37522 10.1299 7.125 9.5 7.125C8.87011 7.125 8.26602 7.37522 7.82062 7.82062C7.37522 8.26602 7.125 8.87011 7.125 9.5C7.125 10.1299 7.37522 10.734 7.82062 11.1794C8.26602 11.6248 8.87011 11.875 9.5 11.875C10.1299 11.875 10.734 11.6248 11.1794 11.1794Z" stroke="black" stroke-opacity="0.4" stroke-width="2" stroke-linecap="round" stroke-linejoin="round"/>
<path d="M1.9458 9.50001C2.95438 6.28822 5.95559 3.95834 9.49988 3.95834C13.045 3.95834 16.0454 6.28822 17.054 9.50001C16.0454 12.7118 13.045 15.0417 9.49988 15.0417C5.95559 15.0417 2.95438 12.7118 1.9458 9.50001Z" stroke="black" stroke-opacity="0.4" stroke-width="2" stroke-linecap="round" stroke-linejoin="round"/>
</svg>
